<?xml version="1.0" encoding="UTF-8" standalone="no"?><!DOCTYPE svg PUBLIC "-//W3C//DTD SVG 1.1//EN" "http://www.w3.org/Graphics/SVG/1.1/DTD/svg11.dtd"><svg width="100%" height="100%" viewBox="0 0 100 100" version="1.1" xmlns="http://www.w3.org/2000/svg" xmlns:xlink="http://www.w3.org/1999/xlink" xml:space="preserve" xmlns:serif="http://www.serif.com/" style="fill-rule:evenodd;clip-rule:evenodd;stroke-linejoin:round;stroke-miterlimit:2;"><path d="M39.538,0.017l3.037,-0.013l14.85,0l3.042,0.013l3.808,0.042l1.804,0.029l1.742,0.046l1.679,0.058l1.617,0.067l1.558,0.088l1.5,0.104l1.438,0.125l1.387,0.138c7.25,0.817 12.221,2.567 15.971,6.317c3.75,3.75 5.5,8.717 6.317,15.971l0.142,1.387l0.121,1.442l0.104,1.5l0.083,1.554l0.104,2.45l0.05,1.708l0.054,2.683l0.038,3.812l0.017,4.083l-0.004,13.804l-0.013,3.042l-0.042,3.808l-0.029,1.804l-0.046,1.742l-0.058,1.679l-0.067,1.617l-0.088,1.558l-0.104,1.5l-0.125,1.438l-0.138,1.387c-0.817,7.25 -2.567,12.221 -6.317,15.971c-3.75,3.75 -8.717,5.5 -15.971,6.317l-1.387,0.142l-1.442,0.121l-1.5,0.104l-1.554,0.083l-2.45,0.104l-1.708,0.05l-2.683,0.054l-3.813,0.038l-4.083,0.017l-13.804,-0.004l-3.042,-0.013l-3.808,-0.042l-1.804,-0.029l-1.742,-0.046l-1.679,-0.058l-1.617,-0.067l-1.558,-0.088l-1.5,-0.104l-1.438,-0.125l-1.388,-0.138c-7.25,-0.817 -12.221,-2.567 -15.971,-6.317c-3.75,-3.75 -5.5,-8.717 -6.317,-15.971l-0.142,-1.387l-0.121,-1.442l-0.104,-1.5l-0.083,-1.554l-0.104,-2.45l-0.05,-1.708l-0.054,-2.683l-0.038,-3.813l-0.017,-4.083l0.004,-13.804l0.013,-3.042l0.042,-3.808l0.029,-1.804l0.046,-1.742l0.058,-1.679l0.067,-1.617l0.088,-1.558l0.104,-1.5l0.125,-1.438l0.137,-1.388c0.817,-7.25 2.567,-12.221 6.317,-15.971c3.75,-3.75 8.717,-5.5 15.971,-6.317l1.388,-0.142l1.442,-0.121l1.5,-0.104l1.554,-0.083l2.45,-0.104l1.708,-0.05l2.683,-0.054l3.812,-0.038Zm-11.246,30.4l-11.417,0c0.542,26 13.542,41.625 36.333,41.625l1.292,0l0,-14.875c8.375,0.833 14.708,6.958 17.25,14.875l11.833,0c-3.25,-11.833 -11.792,-18.375 -17.125,-20.875c5.333,-3.083 12.833,-10.583 14.625,-20.75l-10.75,0c-2.333,8.25 -9.25,15.75 -15.833,16.458l0,-16.458l-10.75,0l0,28.833c-6.667,-1.667 -15.083,-9.75 -15.458,-28.833Z" style="fill:#fafafa;fill-rule:nonzero;"/></svg>