<?xml version="1.0" encoding="UTF-8" standalone="no"?><!DOCTYPE svg PUBLIC "-//W3C//DTD SVG 1.1//EN" "http://www.w3.org/Graphics/SVG/1.1/DTD/svg11.dtd"><svg width="100%" height="100%" viewBox="0 0 100 100" version="1.1" xmlns="http://www.w3.org/2000/svg" xmlns:xlink="http://www.w3.org/1999/xlink" xml:space="preserve" xmlns:serif="http://www.serif.com/" style="fill-rule:evenodd;clip-rule:evenodd;stroke-linejoin:round;stroke-miterlimit:2;"><path d="M72.8,59.925c-1.237,-0.621 -7.325,-3.612 -8.458,-4.029c-1.138,-0.413 -1.963,-0.617 -2.792,0.625c-0.821,1.238 -3.196,4.025 -3.917,4.85c-0.721,0.829 -1.446,0.929 -2.683,0.312c-1.238,-0.625 -5.229,-1.929 -9.958,-6.146c-3.679,-3.283 -6.167,-7.337 -6.887,-8.579c-0.721,-1.238 -0.075,-1.908 0.542,-2.525c0.558,-0.554 1.242,-1.446 1.858,-2.167c0.621,-0.725 0.825,-1.242 1.242,-2.071c0.413,-0.825 0.208,-1.546 -0.104,-2.167c-0.312,-0.621 -2.788,-6.717 -3.817,-9.196c-1.008,-2.412 -2.029,-2.083 -2.788,-2.125c-0.721,-0.033 -1.546,-0.042 -2.375,-0.042c-0.825,0 -2.167,0.308 -3.3,1.55c-1.133,1.238 -4.333,4.233 -4.333,10.329c0,6.092 4.438,11.979 5.054,12.808c0.621,0.825 8.733,13.333 21.154,18.696c2.954,1.275 5.258,2.038 7.058,2.604c2.967,0.946 5.667,0.812 7.796,0.492c2.379,-0.354 7.325,-2.996 8.358,-5.888c1.033,-2.892 1.033,-5.371 0.721,-5.888c-0.308,-0.517 -1.133,-0.825 -2.375,-1.446m-22.587,30.846l-0.017,0c-7.375,0.001 -14.617,-1.983 -20.962,-5.742l-1.504,-0.892l-15.588,4.092l4.158,-15.2l-0.979,-1.558c-4.123,-6.565 -6.304,-14.165 -6.292,-21.917c0.004,-22.708 18.483,-41.183 41.2,-41.183c11,-0 21.342,4.292 29.117,12.075c7.745,7.711 12.089,18.212 12.054,29.142c-0.012,22.708 -18.487,41.183 -41.187,41.183m35.054,-76.238c-9.269,-9.331 -21.902,-14.568 -35.054,-14.533c-27.313,0 -49.542,22.229 -49.554,49.55c-0,8.733 2.279,17.258 6.617,24.771l-7.033,25.679l26.271,-6.892c7.265,3.958 15.406,6.032 23.679,6.033l0.021,0c27.308,0 49.542,-22.229 49.554,-49.554c0.041,-13.147 -5.184,-25.778 -14.5,-35.054Z" style="fill:#fafafa;fill-rule:nonzero;"/></svg>